<?xml version="1.0" encoding="utf-8"?>
<!-- Generator: Adobe Illustrator 25.2.1, SVG Export Plug-In . SVG Version: 6.00 Build 0)  -->
<svg version="1.1" id="Capa_1" xmlns="http://www.w3.org/2000/svg" xmlns:xlink="http://www.w3.org/1999/xlink" x="0px" y="0px"
	 viewBox="0 0 172 172" style="enable-background:new 0 0 172 172;" xml:space="preserve">
<style type="text/css">
	.st0{fill:none;}
	.st1{fill:#0033A0;}
	.st2{fill:#FFFFFF;}
</style>
<g>
	<path class="st0" d="M0,172V0h172v172H0z"/>
	<g>
		<path class="st1" d="M110.4,69.9h-38c-1.4,0-2.5-1.1-2.5-2.5V50.9c0-1.4,1.1-2.5,2.5-2.5h38c1.4,0,2.5,1.1,2.5,2.5v16.4
			C112.9,68.7,111.8,69.9,110.4,69.9z"/>
		<path class="st1" d="M130.9,16.1H52c-7.9,0-14.4,6.2-14.4,13.7v2.4h-2.7c-4.4,0-8.1,3.6-8.1,8.1s3.6,8.1,8.1,8.1h2.7v10.8h-2.7
			c-4.4,0-8.1,3.6-8.1,8.1c0,4.4,3.6,8.1,8.1,8.1h2.7V86h-2.7c-4.4,0-8.1,3.6-8.1,8.1s3.6,8.1,8.1,8.1h2.7v10.8h-2.7
			c-4.4,0-8.1,3.6-8.1,8.1s3.6,8.1,8.1,8.1h2.7v16.1c0,5.9,4.8,10.8,10.8,10.8H129c8.9,0,16.1-7.2,16.1-16.1v-16.1v-8.1V29.7
			C145.1,22.2,138.8,16.1,130.9,16.1z M37.6,43h-2.7c-1.5,0-2.7-1.2-2.7-2.7s1.2-2.7,2.7-2.7h2.7V43z M37.6,69.9h-2.7
			c-1.5,0-2.7-1.2-2.7-2.7s1.2-2.7,2.7-2.7h2.7V69.9z M37.6,96.8h-2.7c-1.5,0-2.7-1.2-2.7-2.7s1.2-2.7,2.7-2.7h2.7V96.8z
			 M37.6,123.6h-2.7c-1.5,0-2.7-1.2-2.7-2.7s1.2-2.7,2.7-2.7h2.7V123.6z M139.8,139.8c0,5.9-4.8,10.8-10.8,10.8H48.4
			c-3,0-5.4-2.4-5.4-5.4s2.4-5.4,5.4-5.4h83.3c3,0,5.8-1,8.1-2.7V139.8z M139.8,123.6v2.7c0,4.4-3.6,8.1-8.1,8.1H48.4
			c-2,0-3.8,0.6-5.4,1.5v-106c0-4.6,4-8.4,9-8.4h78.9c4.9,0,8.8,3.7,8.8,8.2v85.8V123.6z"/>
		<rect x="60.6" y="91.4" class="st1" width="60.4" height="5.4"/>
		<rect x="60.6" y="102.1" class="st1" width="60.4" height="5.4"/>
		<path class="st1" d="M115.8,37.6H67c-4.3,0-7.8,3.5-7.8,7.8v27.3c0,4.3,3.5,7.8,7.8,7.8h48.8c4.3,0,7.8-3.5,7.8-7.8V45.5
			C123.6,41.1,120.1,37.6,115.8,37.6z M118.2,72.8c0,1.4-1.1,2.5-2.5,2.5H67c-1.4,0-2.5-1.1-2.5-2.5V45.5c0-1.4,1.1-2.5,2.5-2.5
			h48.8c1.4,0,2.5,1.1,2.5,2.5L118.2,72.8z"/>
		<rect x="60.6" y="112.9" class="st1" width="33.5" height="5.4"/>
		<g>
			<path class="st1" d="M137.1,171.9c0.2,0,0.4,0,0.6,0h4.8v-0.2c16.5-1.4,29.6-15.2,29.6-32.1c0-2.8-0.4-5.5-1.1-8.1h0.2
				c-0.4-2.3-1-3.6-1.9-5.4H169c-1.3-2.9-3-5.5-5.1-7.8v-0.1c-0.1-0.1-0.1-0.1-0.2-0.2c-1.5-1.8-3.4-3.1-5.2-4.7v0
				c-4.4-3.2-9.7-5.3-15.4-5.9h-5.9c-0.2,0-0.4,0-0.6-0.1c-16.4,1.5-29.2,15.3-29.2,32.1c0,16.9,13,30.7,29.6,32.1V171.9z"/>
			<circle class="st2" cx="139.8" cy="139.6" r="26.9"/>
			<g>
				<path class="st1" d="M155.4,154.4c-3.9,4.1-9.5,6.7-15.6,6.7c-6.2,0-11.7-2.6-15.6-6.7c3.9-4.1,9.5-6.7,15.6-6.7
					C145.9,147.6,151.4,150.2,155.4,154.4z"/>
				<path class="st1" d="M139.8,126.1c-4.5,0-8.1,3.6-8.1,8.1s3.6,8.1,8.1,8.1s8.1-3.6,8.1-8.1S144.2,126.1,139.8,126.1z"/>
			</g>
		</g>
	</g>
</g>
</svg>
