<?xml version="1.0" encoding="utf-8"?>
<!-- Generator: Adobe Illustrator 25.2.1, SVG Export Plug-In . SVG Version: 6.00 Build 0)  -->
<svg version="1.1" id="Capa_1" xmlns="http://www.w3.org/2000/svg" xmlns:xlink="http://www.w3.org/1999/xlink" x="0px" y="0px"
	 viewBox="0 0 172 172" style="enable-background:new 0 0 172 172;" xml:space="preserve">
<style type="text/css">
	.st0{fill:none;}
	.st1{fill:#0033A0;}
</style>
<g>
	<path class="st0" d="M0,172V0h172v172H0z"/>
	<g>
		<path class="st1" d="M86,16.1c-38.5,0-69.9,31.4-69.9,69.9s31.4,69.9,69.9,69.9s69.9-31.4,69.9-69.9S124.5,16.1,86,16.1z M86,26.9
			c32.7,0,59.1,26.4,59.1,59.1s-26.4,59.1-59.1,59.1S26.9,118.7,26.9,86S53.3,26.9,86,26.9z M80.6,59.1v21.5H59.1v10.8h21.5v21.5
			h10.8V91.4h21.5V80.6H91.4V59.1H80.6z"/>
	</g>
</g>
</svg>
