<?xml version="1.0" encoding="utf-8"?>
<!-- Generator: Adobe Illustrator 25.2.1, SVG Export Plug-In . SVG Version: 6.00 Build 0)  -->
<svg version="1.1" id="Capa_1" xmlns="http://www.w3.org/2000/svg" xmlns:xlink="http://www.w3.org/1999/xlink" x="0px" y="0px"
	 viewBox="0 0 172 172" style="enable-background:new 0 0 172 172;" xml:space="preserve">
<style type="text/css">
	.st0{fill:none;}
	.st1{fill:#0033A0;}
</style>
<g>
	<path class="st0" d="M0,172V0h172v172H0z"/>
	<g>
		<path class="st1" d="M134.4,24.2H37.6c-7.5,0-13.4,5.9-13.4,13.4v96.8c0,7.5,5.9,13.4,13.4,13.4h96.8c7.5,0,13.4-5.9,13.4-13.4
			V37.6C147.8,30.1,141.9,24.2,134.4,24.2z M142.5,134.4L142.5,134.4c-0.1,4.6-3.6,8.1-8.2,8.1H37.6c-4.6,0-8.1-3.5-8.1-8.1V37.6
			c0-4.6,3.5-8.1,8.1-8.1h96.8c4.6,0,8.1,3.5,8.1,8.1V134.4z"/>
		<path class="st1" d="M116.6,55.4c-0.6-2.1-2-3.9-3.9-5l-14.4-8.3c-1.8-1.1-4-1.5-6.2-0.9c-2.1,0.6-3.9,2-5,3.9l-4.6,7.9
			c-0.1,0.2-0.2,0.5-0.3,0.8L55.9,99.2c-0.2,0.3-0.4,0.6-0.5,1c0,0,0,0,0,0c-0.1,0.4-0.2,0.8-0.2,1.2l-0.1,26c0,1.3,0.7,2.6,1.8,3.2
			c0.6,0.4,1.2,0.5,1.8,0.5s1.2-0.1,1.8-0.5l22.5-13.1c0.1-0.1,0.2-0.2,0.4-0.3c0,0,0,0,0,0c0.5-0.4,0.9-0.8,1.1-1.4l26.6-46.1
			c0.2-0.3,0.3-0.6,0.4-0.9l4.2-7.1C116.8,59.8,117.2,57.5,116.6,55.4z M93.4,48.8c0.2-0.4,0.5-0.5,0.6-0.5c0.2,0,0.5,0,0.7,0.1
			l14.4,8.3c0.4,0.2,0.5,0.5,0.5,0.6c0,0.2,0,0.5-0.1,0.7l-2.8,4.8l-16.1-9.3L93.4,48.8z M63.6,120.4c-0.4-0.1-0.8-0.4-1.2-0.7
			l0.1-12l11.4,6.6L63.6,120.4z M79.9,109.3l-16-9.3L87,59.9l16,9.3L79.9,109.3z"/>
	</g>
</g>
</svg>
