<?xml version="1.0" encoding="utf-8"?>
<!-- Generator: Adobe Illustrator 25.2.1, SVG Export Plug-In . SVG Version: 6.00 Build 0)  -->
<svg version="1.1" id="Capa_1" xmlns="http://www.w3.org/2000/svg" xmlns:xlink="http://www.w3.org/1999/xlink" x="0px" y="0px"
	 viewBox="0 0 172 172" style="enable-background:new 0 0 172 172;" xml:space="preserve">
<style type="text/css">
	.st0{fill:none;}
	.st1{fill:#0033A0;}
</style>
<g>
	<path class="st0" d="M0,172V0h172v172H0z"/>
	<g>
		<path class="st1" d="M123.6,67.2c0-1.5-1.2-2.7-2.7-2.7h-16.1c-1.5,0-2.7,1.2-2.7,2.7v21.5c0,1.5,1.2,2.7,2.7,2.7h16.1
			c1.5,0,2.7-1.2,2.7-2.7V67.2z"/>
		<path class="st1" d="M137.4,42.2l-23.7-23.7c-1.5-1.5-3.5-2.4-5.7-2.4H40.3c-4.4,0-8.1,3.6-8.1,8.1v107.5v5.4v10.8
			c0,4.4,3.6,8.1,8.1,8.1h91.4c4.4,0,8.1-3.6,8.1-8.1v-10.8v-5.4V47.9C139.8,45.8,138.9,43.7,137.4,42.2L137.4,42.2z M130.6,43h-15
			c-1.5,0-2.7-1.2-2.7-2.7v-15L130.6,43z M131.7,150.5H40.3c-1.5,0-2.7-1.2-2.7-2.7v-3.2c0.8,0.3,1.7,0.5,2.7,0.5h91.4
			c0.9,0,1.8-0.2,2.7-0.5v3.2C134.4,149.3,133.2,150.5,131.7,150.5z M134.4,137.1c0,1.5-1.2,2.7-2.7,2.7H40.3
			c-1.5,0-2.7-1.2-2.7-2.7v-5.4V24.2c0-1.5,1.2-2.7,2.7-2.7h67.2v18.8c0,4.4,3.6,8.1,8.1,8.1h18.8v83.3V137.1z"/>
		<path class="st1" d="M48.4,53.8h75.2v5.4H48.4V53.8z"/>
		<path class="st1" d="M48.4,64.5h48.4v5.4H48.4V64.5z"/>
		<path class="st1" d="M48.4,75.2h21.5v5.4H48.4V75.2z"/>
		<path class="st1" d="M48.4,86h21.5v5.4H48.4V86z"/>
		<path class="st1" d="M75.2,86h21.5v5.4H75.2V86z"/>
		<path class="st1" d="M75.2,75.2h21.5v5.4H75.2V75.2z"/>
		<path class="st1" d="M86,123.6h37.6v5.4H86V123.6z"/>
		<path class="st1" d="M86,112.9h5.4v5.4H86V112.9z"/>
		<path class="st1" d="M96.8,107.5h5.4v10.8h-5.4V107.5z"/>
		<path class="st1" d="M107.5,107.5h5.4v10.8h-5.4V107.5z"/>
		<path class="st1" d="M118.2,112.9h5.4v5.4h-5.4V112.9z"/>
		<path class="st1" d="M59.1,107.5c-5.9,0-10.8,4.8-10.8,10.8S53.2,129,59.1,129s10.8-4.8,10.8-10.8S65.1,107.5,59.1,107.5z
			 M59.1,123.6c-3,0-5.4-2.4-5.4-5.4s2.4-5.4,5.4-5.4s5.4,2.4,5.4,5.4S62.1,123.6,59.1,123.6z"/>
	</g>
</g>
</svg>
