<?xml version="1.0" encoding="utf-8"?>
<!-- Generator: Adobe Illustrator 25.2.1, SVG Export Plug-In . SVG Version: 6.00 Build 0)  -->
<svg version="1.1" id="Capa_1" xmlns="http://www.w3.org/2000/svg" xmlns:xlink="http://www.w3.org/1999/xlink" x="0px" y="0px"
	 viewBox="0 0 172 172" style="enable-background:new 0 0 172 172;" xml:space="preserve">
<style type="text/css">
	.st0{fill:none;}
	.st1{fill:#0033A0;}
</style>
<g>
	<path class="st0" d="M0,172V0h172v172H0z"/>
	<g>
		<path class="st1" d="M134.4,24.2H37.6c-7.5,0-13.4,5.9-13.4,13.4v96.8c0,7.5,5.9,13.4,13.4,13.4h96.8c7.5,0,13.4-5.9,13.4-13.4
			V37.6C147.8,30.1,141.9,24.2,134.4,24.2z M142.4,134.4c0,4.6-3.5,8.1-8.1,8.1H37.6c-4.6,0-8.1-3.5-8.1-8.1V37.6
			c0-4.6,3.5-8.1,8.1-8.1h96.8c4.6,0,8.1,3.5,8.1,8.1V134.4z M120.9,51.1H51.1c-4.4,0-8.1,3.6-8.1,8.1v53.8c0,4.4,3.6,8.1,8.1,8.1
			h69.9c4.4,0,8.1-3.6,8.1-8.1V59.1C129,54.7,125.4,51.1,120.9,51.1z M120.6,56.4L89.8,87.2c-1.8,1.8-5,1.8-6.8,0L52.2,56.4H120.6z
			 M48.4,111.8V60.2L74.1,86L48.4,111.8z M52.2,115.6l25.8-25.8l1.2,1.2c1.9,1.9,4.5,3,7.2,3c2.7,0,5.3-1.1,7.2-3l0.9-0.9l26,25.4
			H52.2z M123.6,111.1L98.3,86.4L123.6,61V111.1z M72.6,110.2h26.9v-5.4H72.6V110.2z"/>
		<path class="st1" d="M69,61.8H103c1.4,0,2.2,1.7,1.1,2.8l-17,17c-0.6,0.6-1.7,0.6-2.3,0l-17-17C66.9,63.5,67.6,61.8,69,61.8
			L69,61.8z"/>
	</g>
</g>
</svg>
