<?xml version="1.0" encoding="utf-8"?>
<!-- Generator: Adobe Illustrator 25.2.1, SVG Export Plug-In . SVG Version: 6.00 Build 0)  -->
<svg version="1.1" id="Capa_1" xmlns="http://www.w3.org/2000/svg" xmlns:xlink="http://www.w3.org/1999/xlink" x="0px" y="0px"
	 viewBox="0 0 172 172" style="enable-background:new 0 0 172 172;" xml:space="preserve">
<style type="text/css">
	.st0{fill:none;}
	.st1{fill:#0033A0;}
	.st2{fill:#FFFFFF;}
	.st3{fill:#0033A0;stroke:#0033A0;stroke-miterlimit:10;}
</style>
<g>
	<path class="st0" d="M0,172V0h172v172H0z"/>
	<g>
		<path class="st1" d="M142.4,64.5v-5.4c0-3-2.4-5.4-5.4-5.4h-32.2v-5.4h5.4c3,0,5.4-2.4,5.4-5.4V21.5c0-3-2.4-5.4-5.4-5.4H61.8
			c-3,0-5.4,2.4-5.4,5.4V43c0,3,2.4,5.4,5.4,5.4h5.4v5.4H34.9c-3,0-5.4,2.4-5.4,5.4v5.4c0,3,2.4,5.4,5.4,5.4v80.6h-5.4v5.4h5.4
			h102.1h5.4v-5.4h-5.4V69.9C140,69.9,142.4,67.5,142.4,64.5z M61.8,21.5h48.4l0,21.5H61.8L61.8,21.5z M72.6,48.4h26.9v5.4H72.6
			V48.4z M34.9,59.1h102.1l0,5.4H34.9L34.9,59.1z M40.3,145.1h32.2v5.4H40.3V145.1z M94.1,150.5H77.9v-32.2h16.1V150.5z M99.4,150.5
			v-5.4h32.2v5.4H99.4z M131.7,139.8H99.4v-21.5c0-3-2.4-5.4-5.4-5.4H77.9c-3,0-5.4,2.4-5.4,5.4v21.5H40.3V69.9h91.4V139.8z"/>
		<path class="st1" d="M86,129h5.4v10.8H86V129z"/>
		<path class="st1" d="M126.3,112.9h-21.5v21.5h21.5V112.9z M120.9,129h-10.8v-10.8h10.8V129z"/>
		<path class="st1" d="M67.2,134.4v-21.5H45.7v21.5H67.2z M51.1,118.2h10.8V129H51.1V118.2z"/>
		<path class="st1" d="M126.3,80.6h-21.5v21.5h21.5V80.6z M120.9,96.8h-10.8V86h10.8V96.8z"/>
		<path class="st1" d="M67.2,80.6H45.7v21.5h21.5V80.6z M61.8,96.8H51.1V86h10.8V96.8z"/>
		<path class="st1" d="M96.8,80.6H75.2v21.5h21.5V80.6z M91.4,96.8H80.6V86h10.8V96.8z"/>
		<path class="st1" d="M75.2,29.6h21.5v5.4H75.2V29.6z"/>
		<path class="st1" d="M99.4,145.1h32.2v5.4H99.4V145.1z"/>
		<path class="st1" d="M40.3,145.1h32.2v5.4H40.3V145.1z"/>
	</g>
</g>
<g>
	<path class="st0" d="M94.1,171V94.1H171V171H94.1z"/>
	<g>
		<path class="st2" d="M132.5,95.6c-13.6,0-24.6,11-24.6,24.6c0,11.2,5.9,23.3,11.8,32.7c5.8,9.4,11.7,16,11.7,16
			c0.3,0.3,0.7,0.5,1.2,0.5s0.9-0.2,1.2-0.5c0,0,5.8-6.8,11.7-16.2s11.8-21.5,11.8-32.5C157.2,106.6,146.1,95.6,132.5,95.6z"/>
		<path class="st3" d="M132.5,95.6c-13.6,0-24.6,11-24.6,24.6c0,11.2,5.9,23.3,11.8,32.7c5.8,9.4,11.7,16,11.7,16
			c0.3,0.3,0.7,0.5,1.2,0.5s0.9-0.2,1.2-0.5c0,0,5.8-6.8,11.7-16.2s11.8-21.5,11.8-32.5C157.2,106.6,146.1,95.6,132.5,95.6z
			 M132.5,98.7c11.9,0,21.5,9.6,21.5,21.5c0,9.9-5.6,21.7-11.3,30.9c-4.8,7.7-8.8,12.7-10.2,14.4c-1.4-1.7-5.5-6.5-10.2-14.2
			c-5.7-9.1-11.3-20.9-11.3-31.1C111,108.3,120.6,98.7,132.5,98.7z M132.5,111c-5.9,0-10.8,4.8-10.8,10.8s4.8,10.8,10.8,10.8
			s10.8-4.8,10.8-10.8S138.5,111,132.5,111z M132.5,114.1c4.3,0,7.7,3.4,7.7,7.7c0,4.3-3.4,7.7-7.7,7.7s-7.7-3.4-7.7-7.7
			C124.8,117.5,128.3,114.1,132.5,114.1z"/>
	</g>
</g>
</svg>
