<?xml version="1.0" encoding="utf-8"?>
<!-- Generator: Adobe Illustrator 25.2.1, SVG Export Plug-In . SVG Version: 6.00 Build 0)  -->
<svg version="1.1" id="Capa_1" xmlns="http://www.w3.org/2000/svg" xmlns:xlink="http://www.w3.org/1999/xlink" x="0px" y="0px"
	 viewBox="0 0 172 172" style="enable-background:new 0 0 172 172;" xml:space="preserve">
<style type="text/css">
	.st0{fill:none;}
	.st1{fill:#0033A0;}
</style>
<g>
	<path class="st0" d="M0,172V0h172v172H0z"/>
	<g>
		<path class="st1" d="M86,14.3c-39.6,0-71.7,32.1-71.7,71.7s32.1,71.7,71.7,71.7s71.7-32.1,71.7-71.7S125.6,14.3,86,14.3z M86,145
			c-32.5,0-59-26.5-59-59s26.5-59,59-59s59,26.5,59,59S118.5,145,86,145z"/>
		<g>
			<circle class="st1" cx="86" cy="62.9" r="20.1"/>
			<path class="st1" d="M86,136.9c-17.1,0-32.2-8.7-41-21.9c6.9-10.1,29-15.1,41-15.1s34.1,5.1,41,15.1
				C118.2,128.2,103.1,136.9,86,136.9z"/>
		</g>
	</g>
</g>
</svg>
