<?xml version="1.0" encoding="utf-8"?>
<!-- Generator: Adobe Illustrator 25.2.1, SVG Export Plug-In . SVG Version: 6.00 Build 0)  -->
<svg version="1.1" id="Capa_1" xmlns="http://www.w3.org/2000/svg" xmlns:xlink="http://www.w3.org/1999/xlink" x="0px" y="0px"
	 viewBox="0 0 270 270" style="enable-background:new 0 0 270 270;" xml:space="preserve">
<style type="text/css">
	.st0{fill:none;}
	.st1{opacity:5.000000e-02;}
	.st2{fill:#0033A0;}
	.st3{fill:#FFFFFF;}
	.st4{fill:#0D369C;}
	.st5{fill:#D6A8CE;}
	.st6{fill:#5F6DB3;}
	.st7{fill:#47297C;}
	.st8{fill:#A887BC;}
	.st9{fill:#1D317E;}
	.st10{fill:#FFCE52;}
	.st11{fill:#78DED4;}
	.st12{fill:#78D2F7;}
	.st13{fill:#FFD637;}
	.st14{opacity:7.000000e-02;}
	.st15{fill:#B5DC79;}
	.st16{fill:#DCBFA5;}
	.st17{opacity:0.1;fill:#040506;enable-background:new    ;}
	.st18{fill:#B89F8A;}
	.st19{fill:#000032;}
	.st20{fill:#BABABA;}
	.st21{fill:#E3C8B2;}
	.st22{fill:#D1D1D1;}
	.st23{fill:#9CDCED;}
	.st24{fill:#5EB3E4;}
	.st25{fill:#EAA793;}
	.st26{fill:#00A0DF;}
	.st27{fill:#030D4E;}
	.st28{fill:#F8AE38;}
</style>
<g>
	<g id="Grupo_2743_3_" transform="translate(-40 -70)">
		<polygon id="Rectángulo_2041-5_3_" class="st0" points="22.2,75.1 282.2,73.7 282.2,335.8 22.2,337.2 		"/>
		<g id="Grupo_2324_3_" transform="translate(-1198.533 -13.188)">
			<g id="Online_Test_Education_3_" transform="translate(1243.533 101.187)">
				<g id="Grupo_2312_3_">
					<g id="Trazado_6432_10_" class="st1">
						<path class="st2" d="M169.7,176c50.8-17.7,31.3-29.8,36.8-62.7c4.7-28.6,17.8-46.9,5.6-58.9c-24.9-24.6-23.6,37.2-45.8,12
							s-26.6-68.2-71-63.5c-67.7,7.2,24.5,48.7-8.2,66.2C66,80.4,65.1,40.9,23.8,46.1c-54.8,7,18.9,69.1,11.4,96.9
							s10.3,40.9,36.1,40.8C97.1,183.8,169.7,176,169.7,176z"/>
					</g>
					<g id="Trazado_6431_22_" class="st1">
						<path class="st2" d="M199.8,207.7c60.6,0,39.6,10.6,49.2,13.9s24.7,10-12.9,9.8c-20.2-0.1-9.6-13.6-42.3-5.7
							c-33.5,8.1-43.6-1.8-67.1-1.4c-89.4,1.5-131.8-11.9-62.1-15.1C145.5,205.6,199.8,207.7,199.8,207.7z"/>
					</g>
				</g>
			</g>
			<g id="Grupo_2320_3_" transform="translate(0.017 0.015)">
				<path id="Trazado_6461_6_" class="st3" d="M1429.3,196.9v79.7c0,2.1-1.7,3.9-3.9,3.9c0,0,0,0,0,0h-141.8c-2.2,0-3.9-1.7-3.9-3.9
					c0,0,0,0,0,0v-79.7c0-2.2,1.7-3.9,3.9-3.9h141.8C1427.6,193,1429.3,194.7,1429.3,196.9C1429.3,196.9,1429.3,196.9,1429.3,196.9z
					"/>
				<path id="Trazado_6459_3_" class="st4" d="M1426.7,185.7h-144.3c-4.3,0-7.8,3.5-7.8,7.8v105.9c0,4.3,3.5-5.8,7.8-5.8
					c0,0,0,0,0,0h144.3c3.1,0,5.9,7.5,7.2,4.7c0.4-0.9,0.6,2.3,0.6,1.3V193.5C1434.5,189.2,1431,185.7,1426.7,185.7z M1429.3,276.5
					c0,2.1-1.7,3.9-3.9,3.9c0,0,0,0,0,0h-141.8c-1,0-2-0.4-2.7-1.1c-0.2-0.2-0.3-0.4-0.5-0.6c-0.2-0.2-0.3-0.4-0.4-0.7
					c-0.2-0.5-0.3-1-0.3-1.5v-79.7c0-1,0.4-2,1.1-2.8c0.7-0.7,1.7-1.2,2.7-1.1h141.8c2.1,0,3.9,1.7,3.9,3.9c0,0,0,0,0,0
					L1429.3,276.5z"/>
				<path id="Trazado_6460_3_" class="st5" d="M1429.3,196.9v79.7c0,2.1-1.7,3.9-3.9,3.9c0,0,0,0,0,0h-141.8c-2.2,0-3.9-1.7-3.9-3.9
					c0,0,0,0,0,0v-79.7c0-2.2,1.7-3.9,3.9-3.9h141.8C1427.6,193,1429.3,194.7,1429.3,196.9C1429.3,196.9,1429.3,196.9,1429.3,196.9z
					"/>
				<path id="Trazado_6461_5_" class="st3" d="M1429.3,196.9v79.7c0,2.1-1.7,3.9-3.9,3.9c0,0,0,0,0,0h-141.8c-2.2,0-3.9-1.7-3.9-3.9
					c0,0,0,0,0,0v-79.7c0-2.2,1.7-3.9,3.9-3.9h141.8C1427.6,193,1429.3,194.7,1429.3,196.9C1429.3,196.9,1429.3,196.9,1429.3,196.9z
					"/>
				<circle id="Elipse_208_3_" class="st6" cx="1354.5" cy="189.4" r="2.6"/>
				<circle id="Elipse_209_3_" class="st6" cx="1354.5" cy="286.8" r="4.1"/>
				<g id="Grupo_2318_3_" transform="translate(29.956 15.545)">
					<g id="Grupo_2317_3_" transform="translate(14.196 12.482)">
						<path id="Trazado_6462_3_" class="st4" d="M1265.9,219.2l-5-5v-7.3h1.7v6.6l4.5,4.5L1265.9,219.2z"/>
					</g>
					<path id="Trazado_6463_3_" class="st4" d="M1277.6,211.3v-1.2h0.9c0.6,0,1-0.5,1.1-1.1v-1.2c0-0.6-0.5-1-1.1-1h-5.2
						c-0.5,0-1,0.5-1,1v1.2c0,0.6,0.4,1,1,1.1h1v1.2c-8.3,0.9-14.2,8.4-13.3,16.7c0.9,8.3,8.4,14.2,16.7,13.3
						c8.3-0.9,14.2-8.4,13.3-16.7C1290.2,217.6,1284.6,212.1,1277.6,211.3L1277.6,211.3z M1275.9,238.1c-6.5,0-11.8-5.3-11.9-11.8
						c0-6.5,5.3-11.8,11.8-11.9c6.5,0,11.8,5.3,11.9,11.8c0,0,0,0,0,0.1C1287.7,232.8,1282.4,238.1,1275.9,238.1z"/>
				</g>
				<path id="Trazado_6464_3_" class="st7" d="M1448.6,293.6c0,2.1-0.4,4.2-1.2,6.2c-0.1,0.3-0.2,0.6-0.4,0.8
					c-0.2,0.5-0.5,1-0.8,1.5c-0.5,0.9-1.1,1.7-1.8,2.5c-0.2,0.3-0.5,0.6-0.7,0.8c-3.1,3.1-7.3,4.9-11.7,4.9h-154.7
					c-1.8,0-3.7-0.3-5.4-0.9c-6.8-2.3-11.4-8.7-11.4-15.9H1448.6z"/>
				<path id="Trazado_6465_3_" class="st8" d="M1360.5,301.3h-11.9c-3,0-5.4-2.4-5.4-5.4c0,0,0,0,0,0h22.7
					C1365.9,298.9,1363.5,301.3,1360.5,301.3C1360.5,301.3,1360.5,301.3,1360.5,301.3z"/>
				<path id="Trazado_6466_3_" class="st9" d="M1448.6,293.6c0,2.1-0.4,4.2-1.2,6.2c-0.1,0.3-0.2,0.6-0.4,0.8
					c-0.2,0.5-0.5,1-0.8,1.5c-0.5,0.9-1.1,1.7-1.8,2.5c-0.2,0.3-0.5,0.6-0.7,0.8c-3.1,3.1-7.3,4.9-11.7,4.9h-154.7
					c-1.8,0-3.7-0.3-5.4-0.9c-6.8-2.3-11.4-8.7-11.4-15.9H1448.6z"/>
				<g id="Grupo_2319_3_" transform="translate(69.1 23.348)">
					<path id="Rectángulo_1998_3_" class="st10" d="M1267,187.5h17.6c3.2,0,5.8,2.6,5.8,5.8v0.9c0,3.2-2.6,5.8-5.8,5.8H1267
						c-3.2,0-5.8-2.6-5.8-5.8v-0.9C1261.1,190.1,1263.7,187.5,1267,187.5z"/>
					<path id="Rectángulo_1999_3_" class="st11" d="M1265.2,209.9h34c2.2,0,4,1.8,4,4v0.6c0,2.2-1.8,4-4,4h-34c-2.2,0-4-1.8-4-4
						v-0.6C1261.3,211.6,1263,209.9,1265.2,209.9z"/>
					<path id="Rectángulo_2000_3_" class="st10" d="M1265.2,223.4h21.9c2.2,0,4,1.8,4,4v0.6c0,2.2-1.8,4-4,4h-21.9
						c-2.2,0-4-1.8-4-4v-0.6C1261.3,225.2,1263,223.4,1265.2,223.4z"/>
					<path id="Rectángulo_2001_3_" class="st12" d="M1265.2,240.5h34c2.2,0,4,1.8,4,4v0.6c0,2.2-1.8,4-4,4h-34c-2.2,0-4-1.8-4-4
						v-0.6C1261.3,242.3,1263,240.5,1265.2,240.5z"/>
					<path id="Rectángulo_2002_9_" class="st10" d="M1317.4,185.9h27.7c2.2,0,4,1.8,4,4v0.6c0,2.2-1.8,4-4,4h-27.7
						c-2.2,0-4-1.8-4-4v-0.6C1313.4,187.7,1315.2,185.9,1317.4,185.9z"/>
					<path id="Rectángulo_2003_3_" class="st11" d="M1317.4,197.7h17.4c2.2,0,4,1.8,4,4v0.6c0,2.2-1.8,4-4,4h-17.4
						c-2.2,0-4-1.8-4-4v-0.6C1313.4,199.5,1315.2,197.7,1317.4,197.7z"/>
					<path id="Rectángulo_2004_3_" class="st12" d="M1317.4,209.5h27.7c2.2,0,4,1.8,4,4v0.6c0,2.2-1.8,4-4,4h-27.7
						c-2.2,0-4-1.8-4-4v-0.6C1313.4,211.3,1315.2,209.5,1317.4,209.5z"/>
					<path id="Rectángulo_2005_3_" class="st11" d="M1317.4,224.9h27.7c2.2,0,4,1.8,4,4v0.6c0,2.2-1.8,4-4,4h-27.7
						c-2.2,0-4-1.8-4-4v-0.6C1313.4,226.7,1315.2,224.9,1317.4,224.9z"/>
					<path id="Rectángulo_2006_3_" class="st12" d="M1317.4,236.7h17.4c2.2,0,4,1.8,4,4v0.6c0,2.2-1.8,4-4,4h-17.4
						c-2.2,0-4-1.8-4-4v-0.6C1313.4,238.5,1315.2,236.7,1317.4,236.7z"/>
				</g>
			</g>
		</g>
	</g>
	<g id="Grupo_2323_3_" transform="translate(54.309 101.422)">
		<g id="Grupo_2322_3_" transform="translate(112.647 0.354)">
			<path class="st13" d="M34.3,37.6c-1.9,0.7-2,1.3-2,1.3l4.6-1.4C36.9,37.5,36.3,36.9,34.3,37.6z"/>
			<g id="Grupo_2321_3_" transform="translate(0.312)">
				<g id="Rectángulo_2007_8_" class="st14">
					<path class="st2" d="M-6.8,19l9.6-9.6c2.9-2.9,7.7-2.9,10.6,0l17.1,17.1c2.9,2.9,2.9,7.7,0,10.6l-9.6,9.6
						c-2.9,2.9-7.7,2.9-10.6,0L-6.8,29.6C-9.7,26.7-9.7,21.9-6.8,19z"/>
				</g>
				<path id="Rectángulo_2007_7_" class="st15" d="M-6.1,16.2l9.6-9.6c2.9-2.9,7.7-2.9,10.6,0l17.1,17.1c2.9,2.9,2.9,7.7,0,10.6
					l-9.6,9.6c-2.9,2.9-7.7,2.9-10.6,0L-6.1,26.8C-9.1,23.9-9.1,19.2-6.1,16.2z"/>
				<path id="Rectángulo_2008_3_" class="st3" d="M-1.5,18.6l1.8-1.8c1.3-1.3,3.5-1.3,4.8,0l0.4,0.4c1.3,1.3,1.3,3.5,0,4.8
					l-1.8,1.8c-1.3,1.3-3.5,1.3-4.8,0l0,0l-0.4-0.4C-2.8,22-2.8,19.9-1.5,18.6z"/>
				<path id="Trazado_6485_3_" class="st3" d="M19.6,21.5L9.2,32c-0.8,0.8-2.1,0.8-2.9,0l0,0c-0.8-0.8-0.8-2.1,0-2.9l10.4-10.4
					c0.8-0.8,2.1-0.8,2.9,0c0,0,0,0,0,0l0,0C20.4,19.4,20.4,20.7,19.6,21.5C19.6,21.5,19.6,21.5,19.6,21.5z"/>
				<path id="Trazado_6486_3_" class="st3" d="M23.9,25.9L13.5,36.3c-0.8,0.8-2.1,0.8-2.9,0c0,0,0,0,0,0l0,0c-0.8-0.8-0.8-2.1,0-2.9
					L21,22.9c0.8-0.8,2.1-0.8,2.9,0c0,0,0,0,0,0l0,0C24.7,23.8,24.7,25.1,23.9,25.9C23.9,25.9,23.9,25.9,23.9,25.9z"/>
				<path id="Trazado_6487_3_" class="st3" d="M28.2,30.2L17.8,40.6c-0.8,0.8-2.1,0.8-2.9,0c0,0,0,0,0,0l0,0c-0.8-0.8-0.8-2.1,0-2.9
					l10.4-10.4c0.8-0.8,2.1-0.8,2.9,0l0,0C29.1,28.1,29.1,29.4,28.2,30.2z"/>
			</g>
			<path id="Trazado_6529_5_" class="st16" d="M33.3,39.2c-0.2-1-0.8-1.8-1.7-2.2c-1.5-0.7-1.9-1-1.3-1.5c0.4-0.4,0.5-0.7,0.7-1.1
				c0.2-0.4-1-3.7-0.6-4c0.3-0.3,3.2,0.5,3.7,0.9c0.5,0.8,1,1.7,1.3,2.5c0.3,1.3,0.5,2.6,0.7,3.9C35.3,38.5,34.3,39,33.3,39.2z"/>
			<path id="Trazado_6467_3_" class="st17" d="M61,111.9c-0.1-0.5-0.2-1-0.3-1.5c0.2,0,0.5,0,0.7-0.1L61,111.9z"/>
			<path id="Trazado_6468_4_" class="st18" d="M66.4,128l1.6,2.4l-0.1,1.6l-3,1.1l-2.5-1.6l0.5-2.2L66.4,128z"/>
			<path id="Trazado_6469_4_" class="st19" d="M67.9,129.7c0.7,0.6,1.3,1.4,1.5,2.3c0,0.5-1.9,1.7-3.5,1.9c-2.8-0.2-6.1,1.1-7.9,0.6
				c-0.5-0.7-0.6-1.5-0.2-2.3c1.5-0.2,3-0.7,4.4-1.4c0.2,0.5,0.5,1,0.9,1C65.2,131.3,67.4,130.4,67.9,129.7z"/>
			<path id="Trazado_6470_4_" class="st20" d="M70,88l-20.3,5.6l12,36.3c1.8-0.3,3.6-0.7,5.4-1.4c-1.4-10.5-3.5-20.9-6.5-31.1
				c2.7-8.9,19.1-5.1,19.1-5.1L70,88z"/>
			<path id="Trazado_6471_4_" class="st21" d="M46.1,131l0.9,2.7l-0.5,1.5l-3.2,0.3l-2.3-1.9l1.4-2.2L46.1,131z"/>
			<path id="Trazado_6472_4_" class="st19" d="M47.1,133c0.5,0.8,0.8,1.7,0.9,2.7c-0.2,0.5-2.3,1.1-3.9,0.9
				c-2.6-0.9-6.2-0.6-7.8-1.4c-0.3-0.8-0.2-1.6,0.4-2.3c1.5,0.2,3.1,0.1,4.6-0.3c0.1,0.5,0.2,1.1,0.6,1.2
				C44.1,133.9,46.5,133.6,47.1,133z"/>
			<path id="Trazado_6473_4_" class="st22" d="M65.3,88.9c0.9-3.2-18.6,2.6-20.4,6.9c-2.3,6.7-4.1,35.8-4.1,35.8
				c1.9,0.5,3.9,0.5,5.8,0c0,0,3.5-18.2,4.9-25.3c14.7,3.6,18.8-3.7,18.8-3.7L65.3,88.9z"/>
			<path class="st20" d="M55.6,100.3l-6.6,1.5l-7,30c0,0,3.7,0.4,4.6-0.2c0,0,4-17.1,5.1-23.5C52,106.7,55.6,100.3,55.6,100.3z"/>
			<path id="Trazado_6474_4_" class="st23" d="M58.9,86.8l2.3-0.4l3,7.1l-3.4,0.4c1.6,0.2,3.1,0.5,4.6,0.6c2.6,0.3,9.2-9.2,11.8-9.7
				C77.7,84.6,76,77,76,77l-1.9-19.1c0,0,0.2-4.8-7.2-9.5c-3.5-2.2-6.6,1.5-8.3,2.3c-1.2,7.2-0.6,12.6-0.6,12.6L58.9,86.8z"/>
			<polygon class="st22" points="75.8,83.3 59,86.8 59.1,89.8 51.4,95.9 73.8,91.5 			"/>
			<polygon class="st20" points="63.5,87 74.7,83.7 74.6,83.3 59,86.8 59.1,87.8 			"/>
			<path class="st24" d="M60.3,66.5c1.2-2.5,8.3-7.7,8.3-7.7l-12.4,0.2l0.5,16.7L58,86.9l1-0.1l0.3-9.1C59.3,77.7,59.1,69,60.3,66.5
				z"/>
			<path id="Trazado_6475_4_" class="st18" d="M66.8,48.4c-0.1,1.7-4.4,1.9-7,1.6c2-1.5,0.3-3.2-0.4-4.4l5.7-1.4
				C64.9,45.1,66.1,46.8,66.8,48.4z"/>
			<path id="Trazado_6476_4_" class="st25" d="M57.1,45.5c0.4,0.3,0.9,0.5,1.5,0.7c0.4,0.1,0.9,0.2,1.4,0.4c0.6,0.1,1.2,0.2,1.8,0.4
				c0.2,0,0.4,0,0.6-0.1c1.2,0,2.3-0.4,3.3-0.9c0.3-0.2,0.5-0.4,0.7-0.6c0.9-2.7,1.3-5.5,1.1-8.3c-3.3-1.6-6.6-2.8-9.6-2.5
				c-0.5,1-0.9,2.1-1.1,3.2c-0.4,1.8-0.4,3.6-0.1,5.3C56.7,43.9,56.8,44.7,57.1,45.5z"/>
			<path id="Trazado_6477_4_" class="st16" d="M57.1,45.5c0.4,0.3,0.9,0.5,1.5,0.7c0.4,0.1,0.9,0.2,1.4,0.4c0.6,0.1,1.2,0.2,1.8,0.4
				c0.2,0,0.4,0,0.6-0.1c1.2,0,2.3-0.4,3.3-0.9c0.3-0.2,0.5-0.4,0.7-0.6c0.9-2.7,1.3-5.5,1.1-8.3c-3.3-1.6-6.6-2.8-9.6-2.5
				c-0.2,0.5-0.5,1-0.6,1.5c-0.2,0.6-0.4,1.1-0.5,1.7c-0.1,0.4-0.1,0.8-0.2,1.1c-0.2,1.4-0.2,2.8,0,4.2
				C56.7,43.9,56.8,44.7,57.1,45.5z"/>
			<path class="st26" d="M60.1,51.6c-0.6,0-0.9-0.2-1-0.4c-0.4-0.7,0.4-1.6,1-2.1l0.8-0.6c0,0-0.1,0.4-0.1,0.5
				c-0.1,0.1-0.2,0.4-0.3,0.6c-0.3,0.3-0.4,0.9-0.5,1.2c0.3,0.1,1.5,0,5.8-1.6c0.7-0.3,1-0.6,0.9-0.7l-0.1-0.4l-0.2-0.4
				c0,0,0.7,0.2,0.8,0.4c0.1,0.3,0.2,0.5,0,1.1c-0.2,0.4-0.5,0.7-1.1,0.9C62.7,51.2,61,51.6,60.1,51.6z"/>
			<polygon class="st18" points="56.5,38.8 57,37 57.8,36.7 61.7,37.1 63.3,38.2 			"/>
			<path id="Trazado_6478_4_" class="st27" d="M66.7,46.1c-1.2,1-1.7,0.9-3.5,1c-0.8-1-2.2-1.8-1.9-3.1c0.9-1.6,1.2-1.9,1.1-2.8
				c-0.2-0.6-0.8-1-1.4-0.9c-0.5,0.3-0.8,0.7-0.9,1.2l-0.7-0.2c0.1-0.9,0.5-2.8,1.2-3.1c-1.7,0-3.7,0.2-4-0.6
				c-0.8-1.9-1.8-4.2-1.3-4.7c1.7-0.8,3.5-1.2,5.4-1.2c2.3-0.1,4.6,0.6,6.5,1.9c1.1,0.9,1.7,2.9,1.7,4.6
				C68.7,40.9,68,43.7,66.7,46.1z"/>
			<g>
				<path id="Trazado_6481_4_" class="st19" d="M62.1,101.2l-10,32.2c-0.1,0.2-0.3,0.3-0.6,0.2c-0.2-0.1-0.3-0.3-0.3-0.5l8.3-33
					C60.4,100.6,61.2,100.9,62.1,101.2z"/>
				<path id="Trazado_6482_4_" class="st19" d="M71.4,131.7c0,0.2-0.1,0.5-0.4,0.5c-0.2,0-0.5-0.1-0.5-0.3l-1.8-9l-0.7-3.3
					l-3.6-17.7c0.9,0.2,1.8,0.4,2.7,0.4l1.9,13.2l0.6,4.3L71.4,131.7z"/>
				<path id="Trazado_6483_4_" class="st19" d="M75.2,107.4l-5.7,18.2l-1,3.1l-3.1,10c-0.1,0.2-0.3,0.4-0.5,0.3c0,0,0,0,0,0
					c-0.2-0.1-0.4-0.3-0.3-0.5l3.3-13l1-4.1l3.3-13.2C73.3,108,74.3,107.8,75.2,107.4z"/>
				<path id="Trazado_6484_4_" class="st19" d="M89.1,134.9c0.1,0.2-0.1,0.5-0.3,0.6c-0.2,0.1-0.5-0.1-0.5-0.3l-10.2-29
					c0.7-0.4,1.4-0.9,2.1-1.5c0.1-0.1,0.1-0.1,0.2-0.2L89.1,134.9z"/>
				<path id="Trazado_6479_7_" class="st28" d="M68.4,88c-8.8,3.6-22.4,6.2-17.3,16.4c3.8,7.6,20.3,8,29,0.3
					c9.3-8.2,14.1-19.9,6.7-33.6C82.8,67.2,77.6,84.2,68.4,88z"/>
			</g>
			<path id="Trazado_6488_4_" class="st23" d="M59.7,49.9l-16.2,0.8l-6.7-13.3l-4.6,1.4c1.9,6.3,4.7,11.1,8,16.8
				c3.2,1.4,14.9,3.9,19.1,3.7c2.2-0.1,6.7,0,8.8-0.7c1.4-0.5,1.4-7.1-1.1-8.4c-0.8-0.4-2.9-0.7-3.8-0.5
				C62.4,50,59.7,49.9,59.7,49.9z"/>
			<path id="Trazado_6479_6_" class="st10" d="M71.4,88.5C63.3,91.3,48,98,52.7,106c3.5,6,18.6,6.3,26.6,0.2
				c8.6-6.5,15.4-21.8,8.7-32.6C84.4,70.6,79.9,85.5,71.4,88.5z"/>
		</g>
		<polygon class="st24" points="168.8,59.6 172.4,61.6 165.5,60.2 155.5,56.9 		"/>
	</g>
</g>
</svg>
